name new_emg_signals
nRows=52
nColumns=7
 
endheader
time	RGLTMED	RRF	RADDLONG	RST	RTA	RGM
0.0	0.1798805516353595	0.3365974912677718	0.1303821036430635	0.1365356823299923	0.5064494548590925	0.1587802479604234
0.010000000000001563	0.1965291112579595	0.3509482044818025	0.1510943657883501	0.157182740025924	0.4674099037584668	0.174383412012568
0.019999999999999574	0.2132610002617424	0.3653873050557347	0.1718100949235855	0.1777172745836715	0.4286072463711457	0.1900308811340707
0.03000000000000469	0.2300655506750889	0.3799042162246508	0.1925151635040103	0.1981254431678143	0.3900638495261181	0.2057131121982404
0.04000000000000625	0.2469319356543153	0.3944881747236231	0.213195415338784	0.2183935275781075	0.351801704184618	0.2214204928151505
0.050000000000007816	0.2638491824125749	0.4091282450160159	0.2338366864948676	0.2385079554823826	0.3138423933793106	0.2371433543180971
0.06000000000000938	0.2808061855025216	0.4238133339550878	0.2544248262352597	0.2584553215901285	0.2762070611298765	0.252871984942917
0.07000000000001094	0.2977917204328856	0.4385322058478544	0.2749457179336431	0.2782224087262107	0.2389163824272206	0.2685966431760841
0.0800000000000125	0.3147944575999336	0.4532734978916746	0.2953852999085054	0.2977962087648242	0.2019905343690925	0.2843075712477237
0.09000000000001407	0.331802976515255	0.4680257359547085	0.3157295861210607	0.3171639433837513	0.1654491685202317	0.2999950087454399
0.10000000000001208	0.3488057803112216	0.4827773506722274	0.3359646866836806	0.3363130845992498	0.1293113845597076	0.315649206324792
0.1100000000000172	0.3657913105051759	0.4975166938313004	0.3560768281278179	0.3552313750420598	0.0935957052682619	0.3312604394919544
0.12000000000001876	0.3827479620031023	0.512232055017855	0.3760523733824822	0.3739068479351237	0.0583200528992549	0.3468190224340838
0.13000000000002032	0.3996640983243459	0.526911678501062	0.3958778414168948	0.3923278467334168	0.0235017269696038	0.3623153218726456
0.14000000000002188	0.4165280670280352	0.5415437803308715	0.4155399265045315	0.4104830443860226	0.0108426164996567	0.3777397709152861
0.15000000000002345	0.4333282153226037	0.5561165656249059	0.4350255170713551	0.4283614621796325	0.0446969842692237	0.3930828828817394
0.160000000000025	0.4500529058386941	0.5706182460206876	0.4543217140971062	0.4459524881221924	0.0780460636753923	0.4083352650798708
0.17000000000002657	0.4666905325458489	0.5850370572687175	0.4734158490448852	0.4632458948248015	0.1108752389182422	0.4234876325085144
0.18000000000002814	0.4832295367934038	0.5993612769409828	0.4922955012992051	0.48023185683971	0.1431706058347611	0.4385308214643043
0.1900000000000297	0.4996584234562903	0.613579242227913	0.5109485150964588	0.496900967411695	0.1749189851523286	0.4534558030304845
0.20000000000003126	0.51596577716643	0.6276793677956196	0.529363015934502	0.5132442545992334	0.2061079342221752	0.4682536964260317
0.21000000000003283	0.5321402786099892	0.6416501636735408	0.5475274264495619	0.5292531967211721	0.2367257572375405	0.4829157821943866
0.22000000000003794	0.5481707208698291	0.6554802531416912	0.5654304817495875	0.5449197370838541	0.2667615139451813	0.4974335152115511
0.23000000000003595	0.5640460257917977	0.6691583905856342	0.5830612441936639	0.5602362979438184	0.2962050268623836	0.5117985374936298
0.24000000000004107	0.5797552603522327	0.6826734792867938	0.6004091176067172	0.5751957936612199	0.3250468870133191	0.526002690783449
0.25000000000004263	0.5952876530031979	0.6960145891154214	0.6174638609186792	0.5897916429991323	0.3532784581990463	0.540038028894906
0.26000000000004064	0.6106326099710795	0.7091709740932917	0.6342156012168256	0.6040177805233199	0.3808918798155309	0.5538968297925333
0.2700000000000422	0.6257797314837785	0.7221320897930599	0.6506548461997084	0.6178686670573715	0.4078800682336529	0.5675716073823756
0.28000000000004377	0.640718827901626	0.7348876105404853	0.6667724960207632	0.631339299150526	0.434236716755221	0.5810551229888443
0.29000000000004533	0.6554399357267884	0.7474274463849565	0.6825598545094442	0.6444252175190096	0.4599562941587607	0.5943403964908158
0.30000000000005045	0.6699333334656259	0.7597417598021241	0.698008639757594	0.6571225144264717	0.4850340418492654	0.6074207170892754
0.31000000000004846	0.6841895573171167	0.7718209820909164	0.7131109940583983	0.669427839972297	0.5094659696260361	0.6202896536779449
0.32000000000005	0.6981994166592864	0.7836558294254278	0.7278594931849703	0.6813384072581461	0.533248850083928	0.6329410647879965
0.3300000000000516	0.7119540093039775	0.7952373185211974	0.7422471549947223	0.6928519964037922	0.5563802116645297	0.6453691080773485
0.3400000000000496	0.725444736489112	0.806556781873823	0.7562674473450636	0.7039669573843533	0.5788583303778747	0.6575682493340074
0.3500000000000547	0.738663317576208	0.8176058825265862	0.7699142953046325	0.7146822116631508	0.6006822202216283	0.6695332709624007
0.3600000000000527	0.7516018044195258	0.8283766283227696	0.7831820876433242	0.7249972525976854	0.6218516223326298	0.6812592799208728
0.37000000000005784	0.764252595371891	0.8388613855972418	0.7960656825832783	0.7349121445992882	0.6423669929118141	0.6927417150787993
0.3800000000000594	0.7766084488900169	0.8490528922623559	0.8085604127920833	0.7444275210295688	0.6622294899672516	0.7039763539623015
0.39000000000006096	0.788662496700837	0.8589442702437345	0.820662089598979	0.7535445808187072	0.6814409589209838	0.714959318858482
0.40000000000006253	0.8004082564884126	0.8685290372233657	0.8323670064143877	0.7622650837942172	0.700003917125565	0.7256870822489848
0.4100000000000641	0.8118396440593493	0.8778011176504985	0.8436719413324353	0.7705913447130041	0.7179215373359741	0.7361564715447357
0.42000000000006565	0.8229509849424479	0.886754852983298	0.854574158895396	0.778526225996284	0.7351976301821534	0.746364673094845
0.43000000000006366	0.833737025376168	0.8953850111264068	0.8650714109971904	0.7860731291737725	0.7518366256871392	0.756309235444284
0.4400000000000688	0.8441929426353159	0.9036867950303502	0.8751619369029318	0.7932359850507799	0.7678435538770725	0.7659880718196697
0.45000000000007034	0.8543143546460701	0.911655850421066	0.8848444623633556	0.800019242620074	0.7832240245322845	0.7753994618313588
0.4600000000000719	0.8640973288374352	0.9192882726329976	0.8941181978097739	0.8064278567495649	0.7979842061342732	0.7845420523923377
0.47000000000007347	0.8735383901759541	0.9265806125281252	0.9029828356254684	0.8124672746867624	0.8121308040693972	0.7934148578651624
0.4800000000000786	0.882634528331217	0.9335298814936176	0.9114385465010784	0.8181434214300419	0.82567103815458	0.802017259454318
0.49000000000008015	0.89138320392171	0.9401335555196187	0.9194859748905064	0.8234626840231346	0.8386126195533118	0.8103490038633262
0.5000000000000817	0.8997823537948106	0.9463895783644092	0.9271262335893746	0.8284318948338096	0.8509637271523665	0.818410201235125
0.5100000000000797	0.907830395300579	0.9522963638161938	0.9343608974611832	0.8330583138798645	0.8627329834706955	0.8262013223936387
